<?xml version="1.0" encoding="UTF-8"?>
<!DOCTYPE svg PUBLIC "-//W3C//DTD SVG 1.1//EN" "http://www.w3.org/Graphics/SVG/1.1/DTD/svg11.dtd">
<!-- Creator: CorelDRAW 2020 -->
<svg xmlns="http://www.w3.org/2000/svg" xml:space="preserve" width="8.5in" height="11in" version="1.1" style="shape-rendering:geometricPrecision; text-rendering:geometricPrecision; image-rendering:optimizeQuality; fill-rule:evenodd; clip-rule:evenodd"
viewBox="0 0 8500 11000"
 xmlns:xlink="http://www.w3.org/1999/xlink"
 xmlns:xodm="http://www.corel.com/coreldraw/odm/2003">
 <defs>
  <style type="text/css">
   <![CDATA[
    .str0 {stroke:#373435;stroke-width:6.94;stroke-miterlimit:2.61313}
    .fil6 {fill:#FEFEFE}
    .fil0 {fill:#6B7D87}
    .fil1 {fill:#201E1E}
    .fil5 {fill:#373435}
    .fil2 {fill:#C8B45B}
    .fil3 {fill:#FEFEFE}
    .fil4 {fill:#C8B45B;fill-rule:nonzero}
   ]]>
  </style>
 </defs>
 <g id="Layer_x0020_1">
  <metadata id="CorelCorpID_0Corel-Layer"/>
  <rect class="fil0 str0" x="73.6" y="1046.76" width="8352.8" height="9050"/>
  <g id="_913923768">
   <path class="fil1" d="M4250.01 1348.28c-957.94,560.98 -2094.15,948.83 -3483.37,1078.52 29.04,798.91 17.18,1658.46 144.56,2445.14 400.65,2474.23 2025.95,4252.44 3338.81,4779.79 1312.86,-527.35 2938.16,-2305.56 3338.81,-4779.79 127.38,-786.68 115.52,-1646.23 144.56,-2445.14 -1389.22,-129.69 -2525.43,-517.54 -3483.37,-1078.52zm0 8008.74c-1098.26,-449.94 -2651.34,-2131.69 -3067.11,-4352.77 -138.62,-740.55 -128.08,-1569.53 -158.64,-2325.06 1206.56,-96.12 2263.57,-451.11 3225.76,-995.05 962.19,543.93 2019.2,898.93 3225.76,995.05 -30.56,755.52 -20.02,1584.5 -158.64,2325.06 -415.77,2221.08 -1968.85,3902.83 -3067.11,4352.77l-0.02 0z"/>
   <path class="fil2" d="M2549.73 6008.43c0,206.18 0,393.17 0,599.35 -449.71,0 -1062.98,48.43 -1485.1,-88.85 -175.3,-57 -339.87,-143.69 -479.42,-266.31 -757.2,-665.34 -377.99,-1927.07 811.22,-2037.09 1067.58,0 2135.19,0 3202.77,0 509.8,0 1026.5,249.8 1256.81,729.97 95.89,199.9 112.2,177 370.97,171.08 426.92,0 853.84,0 1280.76,0 1051.63,20.75 1119.67,1493.51 -127.2,1490.85 -603.13,-1.28 -1206.27,-2.63 -1809.41,-3.93 243.18,-168.27 438.96,-360.27 579.74,-579.74 400.59,0 801.19,0 1201.79,0 333.11,-15.75 347.98,-393.62 0,-407.9 -476.65,0 -953.31,0 -1429.95,0 -892.82,22.11 -623.22,-804.41 -1414.24,-804.41 -981.51,0 -1963.03,0 -2944.53,0 -770.72,66.89 -826.58,904.19 -288.74,1124.4 237.7,97.34 990.08,67.37 1274.53,72.57l-0 0.01z"/>
   <path class="fil3" d="M2879.77 5097.68c0,499.64 0,999.27 0,1498.91 492.69,0 985.37,0 1478.06,0 616.83,0 1026.59,-69.91 1414.05,-669.23 -229.88,-24.19 -443.07,-110.46 -640.37,-255.63 -238.94,300.42 -408.06,312.31 -749.25,312.31 -265.6,0 -531.2,0 -796.79,0 0,-294.31 0,-588.61 0,-882.93 -235.24,-1.15 -470.46,-2.28 -705.7,-3.43l0 -0z"/>
   <path class="fil3" d="M5659.54 4260.18c179.13,129.9 337.91,309.8 465.88,565.35 543.83,0 1087.66,0 1631.49,0l444.95 -617.7c-777.06,-2.03 -1554.12,-4.06 -2331.17,-6.09 -81.95,9.41 -152.08,24.43 -211.15,58.44z"/>
   <path class="fil4" d="M3275.2 3978.91c148.11,-2.07 1912.26,-5.18 1912.26,-5.18 0,0 57.54,-214.21 82.27,-305.3 -704.52,9.86 -1394.12,-4.11 -2094.49,5.67 35.28,107.61 66.75,203.51 99.96,304.8l-0 0.01z"/>
   <path class="fil4" d="M4599.15 3269.23c-29.57,-26.94 -387.59,-389.47 -387.59,-389.47 0,0 -279.39,293.58 -360.6,401.34 -320.3,-91.41 -289.18,-83.14 -865.41,-231.57 41.67,150.66 122.55,420.9 124.98,428.65 381.32,-5.33 2211.15,-32.86 2211.15,-32.86 0,0 77.97,-316.64 114.53,-434.92 -569.28,164.05 -529.41,163.49 -837.06,258.82l-0 0.01z"/>
   <path class="fil4" d="M2845.92 2386.5l241.67 164.28c107.42,73.04 95.51,234.93 -21.44,291.43l0 0c-116.95,56.51 -251.2,-34.76 -241.67,-164.27l21.44 -291.45 0 0.01z"/>
   <path class="fil4" d="M5516.68 2349.14l-236.99 170.98c-105.32,76 -88.89,237.52 29.59,290.73l0 0c118.48,53.21 250.13,-41.78 236.98,-170.99l-29.57 -290.72 -0.01 0z"/>
   <path class="fil4" d="M4206.14 2171.55l-143.32 254.69c-63.68,113.17 19.06,252.85 148.91,251.44l0 0c129.85,-1.47 209.5,-142.94 143.32,-254.7l-148.91 -251.43z"/>
   <path class="fil5" d="M847.91 4369.92c11.06,116.46 24.21,232 39.98,346.21 8.93,63.89 18.5,126.19 28.65,187.12 2.94,17.41 5.84,34.86 8.89,52.22 3.52,20.25 7.11,40.36 10.76,60.32 4.02,21.85 8.05,43.7 12.26,65.44 2.25,11.71 4.51,23.38 6.8,35 4.52,22.78 9.2,45.47 13.91,68.14 59.11,-87 96.62,-132.23 202.6,-241.63l-0.31 -1.88c-37.67,-215.54 -63.33,-438.09 -81.57,-663.73l-0.3 -3.5c-83.22,23.05 -164.17,53.83 -241.68,96.3l0.02 -0.01z"/>
   <path class="fil1" d="M847.9 4369.92c77.52,-42.47 158.46,-73.26 241.69,-96.31 18.65,223.01 44.89,446.04 82.17,669.11 -106.07,109.49 -143.56,154.7 -202.75,241.85 -50.77,-246.36 -93.36,-512.52 -121.11,-814.65l0 0z"/>
   <path class="fil1" d="M7074.38 6607.1c45.49,-102.95 89.01,-207.85 130.24,-314.81l3.94 -10.32c7.8,-20.33 15.42,-40.83 23.06,-61.31 19.7,-53.07 38.81,-106.28 57.44,-159.6 4.29,-12.39 8.49,-24.86 12.72,-37.3l-264.2 0 -8.36 22.31c-71,193.11 -149.91,380.33 -235.44,561.02l280.6 0 0 0.01z"/>
   <path class="fil1" d="M7037.58 6023.77c88.15,0 176.29,0 264.43,0 -67.72,196.28 -141.53,391.17 -227.36,583.33 -94.72,0 -189.44,0 -284.17,0 94.85,-190.49 173.43,-386.13 247.09,-583.33l0.01 0z"/>
   <path class="fil1" d="M4250.01 1348.28c-957.94,560.98 -2094.15,948.83 -3483.37,1078.52 29.04,798.91 17.18,1658.46 144.56,2445.14 400.65,2474.23 2025.95,4252.44 3338.81,4779.79 1312.86,-527.35 2938.16,-2305.56 3338.81,-4779.79 127.38,-786.68 115.52,-1646.23 144.56,-2445.14 -1389.22,-129.69 -2525.43,-517.54 -3483.37,-1078.52zm0 8008.74c-1098.26,-449.94 -2651.34,-2131.69 -3067.11,-4352.77 -138.62,-740.55 -128.08,-1569.53 -158.64,-2325.06 1206.56,-96.12 2263.57,-451.11 3225.76,-995.05 962.19,543.93 2019.2,898.93 3225.76,995.05 -30.56,755.52 -20.02,1584.5 -158.64,2325.06 -415.77,2221.08 -1968.85,3902.83 -3067.11,4352.77l-0.02 0z"/>
   <path class="fil6" d="M2549.73 6008.43c0,206.18 0,393.17 0,599.35 -449.71,0 -1062.98,48.43 -1485.1,-88.85 -175.3,-57 -339.87,-143.69 -479.42,-266.31 -757.2,-665.34 -377.99,-1927.07 811.22,-2037.09 1067.58,0 2135.19,0 3202.77,0 509.8,0 1026.5,249.8 1256.81,729.97 95.89,199.9 112.2,177 370.97,171.08 426.92,0 853.84,0 1280.76,0 1051.63,20.75 1119.67,1493.51 -127.2,1490.85 -603.13,-1.28 -1206.27,-2.63 -1809.41,-3.93 243.18,-168.27 438.96,-360.27 579.74,-579.74 400.59,0 801.19,0 1201.79,0 333.11,-15.75 347.98,-393.62 0,-407.9 -476.65,0 -953.31,0 -1429.95,0 -892.82,22.11 -623.22,-804.41 -1414.24,-804.41 -981.51,0 -1963.03,0 -2944.53,0 -770.72,66.89 -826.58,904.19 -288.74,1124.4 237.7,97.34 990.08,67.37 1274.53,72.57l-0 0.01z"/>
   <path class="fil3" d="M2879.77 5097.68c0,499.64 0,999.27 0,1498.91 492.69,0 985.37,0 1478.06,0 616.83,0 1026.59,-69.91 1414.05,-669.23 -229.88,-24.19 -443.07,-110.46 -640.37,-255.63 -238.94,300.42 -408.06,312.31 -749.25,312.31 -265.6,0 -531.2,0 -796.79,0 0,-294.31 0,-588.61 0,-882.93 -235.24,-1.15 -470.46,-2.28 -705.7,-3.43l0 -0z"/>
   <path class="fil3" d="M5659.54 4260.18c179.13,129.9 337.91,309.8 465.88,565.35 543.83,0 1087.66,0 1631.49,0l444.95 -617.7c-777.06,-2.03 -1554.12,-4.06 -2331.17,-6.09 -81.95,9.41 -152.08,24.43 -211.15,58.44z"/>
   <path class="fil4" d="M3275.2 3978.91c148.11,-2.07 1912.26,-5.18 1912.26,-5.18 0,0 57.54,-214.21 82.27,-305.3 -704.52,9.86 -1394.12,-4.11 -2094.49,5.67 35.28,107.61 66.75,203.51 99.96,304.8l-0 0.01z"/>
   <path class="fil4" d="M4599.15 3269.23c-29.57,-26.94 -387.59,-389.47 -387.59,-389.47 0,0 -279.39,293.58 -360.6,401.34 -320.3,-91.41 -289.18,-83.14 -865.41,-231.57 41.67,150.66 122.55,420.9 124.98,428.65 381.32,-5.33 2211.15,-32.86 2211.15,-32.86 0,0 77.97,-316.64 114.53,-434.92 -569.28,164.05 -529.41,163.49 -837.06,258.82l-0 0.01z"/>
   <path class="fil4" d="M2845.92 2386.5l241.67 164.28c107.42,73.04 95.51,234.93 -21.44,291.43l0 0c-116.95,56.51 -251.2,-34.76 -241.67,-164.27l21.44 -291.45 0 0.01z"/>
   <path class="fil4" d="M5516.68 2349.14l-236.99 170.98c-105.32,76 -88.89,237.52 29.59,290.73l0 0c118.48,53.21 250.13,-41.78 236.98,-170.99l-29.57 -290.72 -0.01 0z"/>
   <path class="fil4" d="M4206.14 2171.55l-143.32 254.69c-63.68,113.17 19.06,252.85 148.91,251.44l0 0c129.85,-1.47 209.5,-142.94 143.32,-254.7l-148.91 -251.43z"/>
   <path class="fil5" d="M847.91 4369.92c11.06,116.46 24.21,232 39.98,346.21 8.93,63.89 18.5,126.19 28.65,187.12 2.94,17.41 5.84,34.86 8.89,52.22 3.52,20.25 7.11,40.36 10.76,60.32 4.02,21.85 8.05,43.7 12.26,65.44 2.25,11.71 4.51,23.38 6.8,35 4.52,22.78 9.2,45.47 13.91,68.14 59.11,-87 96.62,-132.23 202.6,-241.63l-0.31 -1.88c-37.67,-215.54 -63.33,-438.09 -81.57,-663.73l-0.3 -3.5c-83.22,23.05 -164.17,53.83 -241.68,96.3l0.02 -0.01z"/>
   <path class="fil1" d="M847.15 4362.13c77.52,-42.47 158.49,-74.34 241.72,-97.39 18.65,223.01 46.41,459.51 83.69,682.58 -106.07,109.49 -143.01,156.61 -202.2,243.76 -50.77,-246.36 -95.46,-526.82 -123.21,-828.95l0 0z"/>
   <path class="fil1" d="M7074.38 6607.1c45.49,-102.95 89.01,-207.85 130.24,-314.81l3.94 -10.32c7.8,-20.33 15.42,-40.83 23.06,-61.31 19.7,-53.07 38.81,-106.28 57.44,-159.6 4.29,-12.39 8.49,-24.86 12.72,-37.3l-264.2 0 -8.36 22.31c-71,193.11 -149.91,380.33 -235.44,561.02l280.6 0 0 0.01z"/>
   <path class="fil1" d="M7038.98 6019.93c88.15,0 175.76,1.27 263.9,1.27 -67.72,196.28 -145.93,401.41 -231.76,593.57 -94.72,0 -184.53,-3.2 -279.26,-3.2 94.85,-190.49 172.05,-390.59 245.71,-587.8l1.41 -3.85z"/>
  </g>
 </g>
</svg>
